# xmcd CD database file
#
# Track frame offsets:
#	150
#	20707
#	43727
#	64285
#
# Disc length: 1162 seconds
#
# Revision: 0
# Processed by: cddbd v1.5PL3 Copyright (c) Steve Scherf et al.
# Submitted via: CDex 1.50
#
DISCID=35048804
DTITLE=GODIEGO - JAVA wa JAVA in the Book of Godiego
DYEAR=1999
DGENRE=Rock
TTITLE0=JAVA wa JAVA in the Book of Godiego
TTITLE1=GATEWAY TO THE DRAGON -NEW BEAT-
TTITLE2=JAVA wa JAVA in the Book of Godiego(instrumental)
TTITLE3=GATEWAY TO THE DRAGON -NEW BEAT-(instrumental)
EXTD=YEAR: 1999
EXTT0=
EXTT1=
EXTT2=
EXTT3=
PLAYORDER=
